<?xml version="1.0" encoding="UTF-8" standalone="no"?>
<!-- Created with Inkscape (http://www.inkscape.org/) -->

<svg
   width="32mm"
   height="32mm"
   viewBox="0 0 32 32"
   version="1.1"
   id="svg532"
   xml:space="preserve"
   inkscape:version="1.2 (dc2aedaf03, 2022-05-15)"
   sodipodi:docname="favicon.svg"
   xmlns:inkscape="http://www.inkscape.org/namespaces/inkscape"
   xmlns:sodipodi="http://sodipodi.sourceforge.net/DTD/sodipodi-0.dtd"
   xmlns="http://www.w3.org/2000/svg"
   xmlns:svg="http://www.w3.org/2000/svg"><sodipodi:namedview
     id="namedview534"
     pagecolor="#ffffff"
     bordercolor="#000000"
     borderopacity="0.25"
     inkscape:showpageshadow="2"
     inkscape:pageopacity="0.0"
     inkscape:pagecheckerboard="0"
     inkscape:deskcolor="#d1d1d1"
     inkscape:document-units="mm"
     showgrid="false"
     inkscape:zoom="2.1644332"
     inkscape:cx="67.454149"
     inkscape:cy="158.70205"
     inkscape:window-width="1920"
     inkscape:window-height="991"
     inkscape:window-x="-9"
     inkscape:window-y="1341"
     inkscape:window-maximized="1"
     inkscape:current-layer="layer1" /><defs
     id="defs529" /><g
     inkscape:label="Ebene 1"
     inkscape:groupmode="layer"
     id="layer1"><g
       id="g1680"
       transform="matrix(3.8569029,0,0,3.8569029,-252.03904,-228.03555)"
       style="stroke-width:0.259275"><circle
         cx="69.495926"
         cy="63.272411"
         id="path849-5-6-2-5"
         stroke="#000000"
         stroke-width="0.00122591"
         stroke-opacity="0"
         fill="#003247"
         r="4.1477933"
         style="fill:#5e8da6;fill-opacity:1" /><g
         id="g1926"
         transform="matrix(0.29732552,0,0,0.29732552,43.283972,-1.4342217)"
         style="stroke-width:0.259275"><g
           id="g3339"
           transform="matrix(0.0859962,0,0,0.0859962,69.891,174.117)"
           style="stroke-width:0.259275"><rect
             x="85.714302"
             y="512.362"
             ry="5.9542999"
             width="120"
             height="120"
             id="rect4780"
             fill-opacity="0"
             style="stroke-width:0.0672237" /><path
             d="m 317.244,401.495 c -29.089,6.283 -96.349,20.601 -132.862,56.853 -24.578,24.433 -40.686,53.997 -41.403,77.481 l 38.778,39.044 c 23.476,-0.594 53.111,-16.497 77.683,-40.878 36.495,-36.258 51.273,-103.4 57.757,-132.454 z m -55.455,55.071 c 8.22,8.276 8.174,21.648 -0.102,29.868 -8.276,8.22 -21.649,8.174 -29.868,-0.102 -8.22,-8.276 -8.174,-21.649 0.102,-29.868 8.276,-8.22 21.648,-8.174 29.868,0.102 z"
             id="path4136"
             stroke-width="0.168489"
             fill="#ffffff" /><path
             d="m 149.453,498.578 c -34.108,-16.681 -50.5905,14.951 -52.7954,32.809 15.6344,-5.783 25.2784,-7.041 40.9074,-3.077 1.66,-5.607 3.696,-12.627 5.781,-17.399 2.084,-4.772 3.471,-6.741 6.107,-12.333 z"
             id="path4178"
             stroke-width="0.168489"
             fill="#ffffff"
             fill-rule="evenodd" /><path
             d="m 219.057,568.66 c 16.447,34.221 -15.296,50.487 -33.169,52.57 5.889,-15.595 7.213,-25.23 3.356,-40.886 5.618,-1.621 12.652,-3.61 17.438,-5.662 4.787,-2.051 6.766,-3.425 12.375,-6.022 z"
             id="path4178-7"
             stroke-width="0.168489"
             fill="#ffffff"
             fill-rule="evenodd" /><path
             d="m 108.726,608.588 c 2.094,-9.385 6.869,-31.086 18.663,-42.803 7.949,-7.888 17.537,-13.027 25.126,-13.207 l 12.53,12.616 c -0.244,7.584 -5.448,17.124 -13.38,25.01 -11.796,11.711 -33.523,16.338 -42.924,18.369 z"
             id="path4136-5"
             stroke-width="0.168489"
             fill="#ffffff" /></g></g></g></g></svg>
