<?xml version="1.0" encoding="UTF-8" standalone="no"?>
<!-- Created with Inkscape (http://www.inkscape.org/) -->

<svg
   width="442.59mm"
   height="368.82901mm"
   viewBox="0 0 442.59 368.82901"
   version="1.1"
   id="svg3258"
   inkscape:version="1.2 (dc2aedaf03, 2022-05-15)"
   sodipodi:docname="hopper_system.svg"
   xmlns:inkscape="http://www.inkscape.org/namespaces/inkscape"
   xmlns:sodipodi="http://sodipodi.sourceforge.net/DTD/sodipodi-0.dtd"
   xmlns="http://www.w3.org/2000/svg"
   xmlns:svg="http://www.w3.org/2000/svg">
  <sodipodi:namedview
     id="namedview3260"
     pagecolor="#ffffff"
     bordercolor="#000000"
     borderopacity="0.25"
     inkscape:showpageshadow="2"
     inkscape:pageopacity="0.0"
     inkscape:pagecheckerboard="0"
     inkscape:deskcolor="#d1d1d1"
     inkscape:document-units="mm"
     showgrid="false"
     inkscape:zoom="0.38262135"
     inkscape:cx="739.63462"
     inkscape:cy="568.4471"
     inkscape:window-width="1920"
     inkscape:window-height="991"
     inkscape:window-x="-9"
     inkscape:window-y="1341"
     inkscape:window-maximized="1"
     inkscape:current-layer="layer1" />
  <defs
     id="defs3255">
    <clipPath
       id="clip0">
      <rect
         x="1240"
         y="408"
         width="887"
         height="1394"
         id="rect2857" />
    </clipPath>
    <clipPath
       id="clip1">
      <rect
         x="1633"
         y="1508"
         width="97"
         height="236"
         id="rect2860" />
    </clipPath>
    <clipPath
       id="clip2">
      <rect
         x="1633"
         y="1508"
         width="97"
         height="236"
         id="rect2863" />
    </clipPath>
    <clipPath
       id="clip3">
      <rect
         x="1633"
         y="1508"
         width="97"
         height="236"
         id="rect2866" />
    </clipPath>
    <radialGradient
       cx="117.091"
       cy="86.104599"
       r="29.1726"
       gradientUnits="userSpaceOnUse"
       spreadMethod="pad"
       id="fill4"
       gradientTransform="matrix(1.33955,0,0,2.65273,0,-113.07)">
      <stop
         offset="0"
         stop-color="#F8BC27"
         id="stop2869" />
      <stop
         offset="1"
         stop-color="#F8BC27"
         stop-opacity="0"
         id="stop2871" />
    </radialGradient>
    <radialGradient
       cx="117.091"
       cy="86.104599"
       r="29.1726"
       gradientUnits="userSpaceOnUse"
       spreadMethod="pad"
       id="fill5"
       gradientTransform="matrix(1.33955,0,0,2.65273,0,-113.07)">
      <stop
         offset="0"
         stop-color="#F8BC27"
         id="stop2874" />
      <stop
         offset="1"
         stop-color="#F8BC27"
         stop-opacity="0"
         id="stop2876" />
    </radialGradient>
  </defs>
  <g
     inkscape:label="Ebene 1"
     inkscape:groupmode="layer"
     id="layer1">
    <g
       clip-path="url(#clip0)"
       transform="matrix(0.26458333,0,0,0.26458334,-224.13104,-107.95)"
       id="g3043">
      <rect
         x="1572.5"
         y="412.5"
         width="219"
         height="1096"
         stroke="#000000"
         stroke-width="9.16667"
         stroke-linejoin="round"
         stroke-miterlimit="10"
         fill="none"
         id="rect2881" />
      <rect
         x="1583.5"
         y="1245.5"
         width="197"
         height="246"
         stroke="#000000"
         stroke-width="9.16667"
         stroke-linejoin="round"
         stroke-miterlimit="10"
         fill="none"
         id="rect2883" />
      <rect
         x="1583.5"
         y="899.5"
         width="197"
         height="314"
         stroke="#000000"
         stroke-width="9.16667"
         stroke-linejoin="round"
         stroke-miterlimit="10"
         fill="none"
         id="rect2885" />
      <rect
         x="1583.5"
         y="639.5"
         width="197"
         height="227"
         stroke="#000000"
         stroke-width="9.16667"
         stroke-linejoin="round"
         stroke-miterlimit="10"
         fill="none"
         id="rect2887" />
      <rect
         x="1583.5"
         y="429.5"
         width="197"
         height="177"
         stroke="#000000"
         stroke-width="9.16667"
         stroke-linejoin="round"
         stroke-miterlimit="10"
         fill="none"
         id="rect2889" />
      <text
         font-family="Arial, Arial_MSFontService, sans-serif"
         font-weight="400"
         font-size="41px"
         transform="translate(1650.68,1328)"
         id="text2891">41kg</text>
      <text
         font-family="Arial, Arial_MSFontService, sans-serif"
         font-weight="400"
         font-size="41px"
         transform="translate(1650.68,1378)"
         id="text2893">7kg</text>
      <text
         font-family="Arial, Arial_MSFontService, sans-serif"
         font-weight="400"
         font-size="41px"
         transform="translate(1650.68,1427)"
         id="text2895">44l</text>
      <text
         font-family="Arial, Arial_MSFontService, sans-serif"
         font-weight="400"
         font-size="41px"
         transform="translate(1652.97,998)"
         id="text2897">40kg</text>
      <text
         font-family="Arial, Arial_MSFontService, sans-serif"
         font-weight="400"
         font-size="41px"
         transform="translate(1652.97,1048)"
         id="text2899">3kg</text>
      <text
         font-family="Arial, Arial_MSFontService, sans-serif"
         font-weight="400"
         font-size="41px"
         transform="translate(1652.97,1097)"
         id="text2901">56l</text>
      <text
         font-family="Arial, Arial_MSFontService, sans-serif"
         font-weight="400"
         font-size="41px"
         transform="translate(1648.46,709)"
         id="text2903">13kg</text>
      <text
         font-family="Arial, Arial_MSFontService, sans-serif"
         font-weight="400"
         font-size="41px"
         transform="translate(1648.46,759)"
         id="text2905">14.5kg</text>
      <text
         font-family="Arial, Arial_MSFontService, sans-serif"
         font-weight="400"
         font-size="41px"
         transform="translate(1648.46,808)"
         id="text2907">41l</text>
      <g
         clip-path="url(#clip1)"
         id="g2929">
        <g
           clip-path="url(#clip2)"
           id="g2927">
          <g
             clip-path="url(#clip3)"
             id="g2925">
            <path
               d="m 120.128,90.3983 c -5.905,-16.2243 -0.463,-34.4009 13.386,-44.7112 13.849,-10.3102 32.823,-10.3102 46.672,0 13.849,10.3103 19.291,28.4869 13.386,44.7112"
               stroke="#f83a3a"
               stroke-width="1.33568"
               fill="#f83a3a"
               transform="matrix(1.00636,0,0,1,1522.39,1553.22)"
               id="path2909" />
            <path
               d="M 119.554,90.3983 156.798,192.728 194.045,90.3983 h -74.491"
               stroke="#f83a3a"
               stroke-width="1.33568"
               fill="#f83a3a"
               transform="matrix(1.00636,0,0,1,1522.39,1553.22)"
               id="path2911" />
            <path
               d="m 120.128,90.3983 c -5.905,-16.2243 -0.463,-34.4009 13.386,-44.7112 13.849,-10.3102 32.823,-10.3102 46.672,0 13.849,10.3103 19.291,28.4869 13.386,44.7112"
               fill="url(#fill4)"
               transform="matrix(1.00636,0,0,1,1522.39,1553.86)"
               id="path2913"
               style="fill:url(#fill4)" />
            <path
               d="M 119.554,90.3983 156.798,192.728 194.045,90.3983 h -74.491"
               fill="url(#fill5)"
               transform="matrix(1.00636,0,0,1,1522.39,1553.86)"
               id="path2915"
               style="fill:url(#fill5)" />
            <path
               d="m 1004.48,2298.83 c -0.15,1.48 -0.29,2.94 0.86,6.3 1.16,3.37 3.61,8.61 5.53,13.92 1.91,5.32 3.28,10.67 3,14.58 -0.28,3.89 -2.21,6.31 -4.84,9.55 -2.63,3.25 -5.97,7.32 -8.98,12.7 -3.024,5.38 -5.724,12.09 -7.646,18.17 -1.922,6.09 -3.066,11.57 -3.948,16.83 -0.883,5.26 -1.503,10.29 -2.124,15.33"
               stroke="#000000"
               stroke-width="11.8185"
               fill="none"
               transform="matrix(1.00636,0,0,1,647.294,-784.754)"
               id="path2917" />
            <path
               d="m 1048.19,2297.52 c 0.22,1.46 0.45,2.91 -0.68,6.5 -1.13,3.58 -3.61,9.27 -5.54,14.8 -1.92,5.54 -3.29,10.9 -3.01,14.81 0.28,3.89 2.21,6.31 4.84,9.55 2.63,3.25 5.97,7.32 8.99,12.7 3.01,5.38 5.71,12.09 7.64,18.17 1.92,6.09 3.06,11.57 3.94,16.83 0.89,5.26 1.51,10.29 2.13,15.33"
               stroke="#000000"
               stroke-width="11.8185"
               fill="none"
               transform="matrix(1.00636,0,0,1,647.294,-784.754)"
               id="path2919" />
            <path
               d="m 999.171,2298.68 c 17.999,0 35.989,0 53.979,0"
               stroke="#000000"
               stroke-width="11.8185"
               fill="none"
               transform="matrix(1.00636,0,0,1,647.294,-784.754)"
               id="path2921" />
            <path
               d="m 3749.67,8611.55 c -0.46,2.1 -1.38,6.29 -2.01,8.43 -0.63,2.14 -0.97,2.23 -1.29,3.3 -0.32,1.07 -0.62,3.17 -0.87,4.68 -0.24,1.57 -0.43,2.64 -0.58,3.75 -0.16,1.12 -0.26,2.23 -0.48,3.61 -0.22,1.39 -0.54,3.04 -0.68,4.2 -0.13,1.2 -0.08,1.96 -0.05,2.31 0.03,0.36 0.03,0.36 12.08,0.41 12.06,0.04 31.05,0.04 41.82,0.04 10.78,0 10.78,0 10.58,-1.52 -0.2,-1.51 -0.56,-4.23 -0.86,-6.46 -0.3,-2.28 -0.44,-3.3 -0.6,-4.33 -0.15,-1.07 -0.32,-2.14 -0.5,-3.3 -0.19,-1.16 -0.38,-2.32 -0.62,-3.3 -0.24,-0.98 -0.52,-1.78 -1.98,-3.83 -1.45,-2.1 -4.08,-5.4 -10.43,-8.57 -6.35,-3.16 -16.42,-6.24 -20.85,-7.18 -4.43,-0.98 -3.22,0.23 -5.98,1.47 -2.77,1.3 -9.5,2.77 -12.87,3.48 -3.37,0.72 -3.37,0.72 -3.83,2.81 z"
               fill="#ffffff"
               transform="matrix(1.00636,0,0,1,-2119.73,-7019.75)"
               id="path2923" />
          </g>
        </g>
      </g>
      <g
         id="g2937">
        <g
           id="g2935">
          <g
             id="g2933">
            <path
               d="m 24.9999,5.20832 c 0,0 -13.0208,18.33328 -13.0208,26.56238 0,7.1875 5.8333,13.0208 13.0208,13.0208 7.1875,0 13.0208,-5.8333 13.0208,-13.0208 0,-8.2812 -13.0208,-26.56238 -13.0208,-26.56238 z"
               transform="matrix(-1.00001,0,0,1,1641,1289)"
               id="path2931" />
          </g>
        </g>
      </g>
      <g
         id="g2959">
        <g
           id="g2957">
          <g
             id="g2955">
            <path
               d="m 29.9999,6.87498 c -9.2312,0 -19.1668,2.41187 -19.1668,7.70812 v 30.8336 c 0,5.2963 9.9356,7.7081 19.1668,7.7081 9.2312,0 19.1668,-2.4118 19.1668,-7.7081 V 14.5831 c 0,-5.29625 -9.9356,-7.70812 -19.1668,-7.70812 z m 0,3.75002 c 10.0143,0 15.4168,2.8125 15.4168,3.9581 0,1.1456 -5.4025,3.9587 -15.4168,3.9587 -10.0143,0 -15.4168,-2.8125 -15.4168,-3.9587 0,-1.1463 5.4025,-3.9581 15.4168,-3.9581 z m 0,38.7498 c -10.0143,0 -15.4168,-2.8125 -15.4168,-3.9581 V 19.4106 c 3.7312,1.9568 9.7074,2.8812 15.4168,2.8812 5.7094,0 11.6875,-0.9244 15.4168,-2.8812 v 26.0061 c 0,1.1456 -5.4025,3.9581 -15.4168,3.9581 z"
               transform="matrix(1,0,0,1.01667,1586,1345)"
               id="path2939" />
            <path
               d="m 19.6299,40.1042 0.3007,1.2132 c 0.7562,-0.1875 1.5625,-0.3544 2.4031,-0.5 L 22.1249,39.588 c -0.8693,0.1475 -1.7081,0.3212 -2.495,0.5162 z"
               transform="matrix(1,0,0,1.01667,1586,1345)"
               id="path2941" />
            <path
               d="m 24.1343,39.298 0.1487,1.2406 c 0.7982,-0.0956 1.625,-0.1712 2.4563,-0.2256 l -0.0813,-1.25 c -0.8537,0.0581 -1.7031,0.1362 -2.5237,0.235 z"
               transform="matrix(1,0,0,1.01667,1586,1345)"
               id="path2943" />
            <path
               d="m 15.2618,41.6567 0.5706,1.1125 c 0.7172,-0.3596 1.4603,-0.6648 2.2232,-0.9131 l -0.395,-1.1875 c -0.8233,0.2686 -1.6252,0.599 -2.3988,0.9881 z"
               transform="matrix(1,0,0,1.01667,1586,1345)"
               id="path2945" />
            <path
               d="m 28.6818,38.9749 0.0306,1.25 c 0.8125,-0.02 1.6537,-0.0213 2.47,0 l 0.03,-1.25 c -0.8375,-0.0225 -1.6962,-0.0213 -2.5306,0 z"
               transform="matrix(1,0,0,1.01667,1586,1345)"
               id="path2947" />
            <path
               d="m 41.8474,41.8242 c 0.7646,0.2451 1.5103,0.5457 2.2312,0.8994 l 0.5625,-1.1175 C 43.865,41.2247 43.062,40.9007 42.2386,40.6367 Z"
               transform="matrix(1,0,0,1.01667,1586,1345)"
               id="path2949" />
            <path
               d="m 37.5624,40.803 c 0.8356,0.14 1.645,0.3044 2.405,0.49 l 0.2962,-1.215 c -0.7894,-0.1919 -1.6293,-0.3631 -2.495,-0.5075 z"
               transform="matrix(1,0,0,1.01667,1586,1345)"
               id="path2951" />
            <path
               d="m 33.1568,40.3067 c 0.8312,0.0519 1.6581,0.125 2.4575,0.22 l 0.1456,-1.2412 C 34.938,39.1892 34.0886,39.113 33.2355,39.0592 Z"
               transform="matrix(1,0,0,1.01667,1586,1345)"
               id="path2953" />
          </g>
        </g>
      </g>
      <g
         id="g2967">
        <g
           id="g2965">
          <g
             id="g2963">
            <path
               d="m 24.9999,5.20832 c 0,0 -13.0208,18.33328 -13.0208,26.56238 0,7.1875 5.8333,13.0208 13.0208,13.0208 7.1875,0 13.0208,-5.8333 13.0208,-13.0208 0,-8.2812 -13.0208,-26.56238 -13.0208,-26.56238 z"
               transform="matrix(-1.00001,0,0,1,1641,962)"
               id="path2961" />
          </g>
        </g>
      </g>
      <g
         id="g2989">
        <g
           id="g2987">
          <g
             id="g2985">
            <path
               d="m 29.9999,6.87498 c -9.2312,0 -19.1668,2.41187 -19.1668,7.70812 v 30.8336 c 0,5.2963 9.9356,7.7081 19.1668,7.7081 9.2312,0 19.1668,-2.4118 19.1668,-7.7081 V 14.5831 c 0,-5.29625 -9.9356,-7.70812 -19.1668,-7.70812 z m 0,3.75002 c 10.0143,0 15.4168,2.8125 15.4168,3.9581 0,1.1456 -5.4025,3.9587 -15.4168,3.9587 -10.0143,0 -15.4168,-2.8125 -15.4168,-3.9587 0,-1.1463 5.4025,-3.9581 15.4168,-3.9581 z m 0,38.7498 c -10.0143,0 -15.4168,-2.8125 -15.4168,-3.9581 V 19.4106 c 3.7312,1.9568 9.7074,2.8812 15.4168,2.8812 5.7094,0 11.6875,-0.9244 15.4168,-2.8812 v 26.0061 c 0,1.1456 -5.4025,3.9581 -15.4168,3.9581 z"
               transform="matrix(1,0,0,1.01667,1586,1018)"
               id="path2969" />
            <path
               d="m 19.6299,40.1042 0.3007,1.2132 c 0.7562,-0.1875 1.5625,-0.3544 2.4031,-0.5 L 22.1249,39.588 c -0.8693,0.1475 -1.7081,0.3212 -2.495,0.5162 z"
               transform="matrix(1,0,0,1.01667,1586,1018)"
               id="path2971" />
            <path
               d="m 24.1343,39.298 0.1487,1.2406 c 0.7982,-0.0956 1.625,-0.1712 2.4563,-0.2256 l -0.0813,-1.25 c -0.8537,0.0581 -1.7031,0.1362 -2.5237,0.235 z"
               transform="matrix(1,0,0,1.01667,1586,1018)"
               id="path2973" />
            <path
               d="m 15.2618,41.6567 0.5706,1.1125 c 0.7172,-0.3596 1.4603,-0.6648 2.2232,-0.9131 l -0.395,-1.1875 c -0.8233,0.2686 -1.6252,0.599 -2.3988,0.9881 z"
               transform="matrix(1,0,0,1.01667,1586,1018)"
               id="path2975" />
            <path
               d="m 28.6818,38.9749 0.0306,1.25 c 0.8125,-0.02 1.6537,-0.0213 2.47,0 l 0.03,-1.25 c -0.8375,-0.0225 -1.6962,-0.0213 -2.5306,0 z"
               transform="matrix(1,0,0,1.01667,1586,1018)"
               id="path2977" />
            <path
               d="m 41.8474,41.8242 c 0.7646,0.2451 1.5103,0.5457 2.2312,0.8994 l 0.5625,-1.1175 C 43.865,41.2247 43.062,40.9007 42.2386,40.6367 Z"
               transform="matrix(1,0,0,1.01667,1586,1018)"
               id="path2979" />
            <path
               d="m 37.5624,40.803 c 0.8356,0.14 1.645,0.3044 2.405,0.49 l 0.2962,-1.215 c -0.7894,-0.1919 -1.6293,-0.3631 -2.495,-0.5075 z"
               transform="matrix(1,0,0,1.01667,1586,1018)"
               id="path2981" />
            <path
               d="m 33.1568,40.3067 c 0.8312,0.0519 1.6581,0.125 2.4575,0.22 l 0.1456,-1.2412 C 34.938,39.1892 34.0886,39.113 33.2355,39.0592 Z"
               transform="matrix(1,0,0,1.01667,1586,1018)"
               id="path2983" />
          </g>
        </g>
      </g>
      <g
         id="g2997">
        <g
           id="g2995">
          <g
             id="g2993">
            <path
               d="m 24.9999,5.20832 c 0,0 -13.0208,18.33328 -13.0208,26.56238 0,7.1875 5.8333,13.0208 13.0208,13.0208 7.1875,0 13.0208,-5.8333 13.0208,-13.0208 0,-8.2812 -13.0208,-26.56238 -13.0208,-26.56238 z"
               transform="matrix(-1.00001,0,0,1,1643,672)"
               id="path2991" />
          </g>
        </g>
      </g>
      <g
         id="g3019">
        <g
           id="g3017">
          <g
             id="g3015">
            <path
               d="m 1617.5,734.99 c -9.39,0 -19.49,2.452 -19.49,7.836 v 31.348 c 0,5.384 10.1,7.836 19.49,7.836 9.39,0 19.49,-2.452 19.49,-7.836 v -31.348 c 0,-5.384 -10.1,-7.836 -19.49,-7.836 z m 0,3.812 c 10.18,0 15.67,2.859 15.67,4.024 0,1.165 -5.49,4.025 -15.67,4.025 -10.18,0 -15.67,-2.859 -15.67,-4.025 0,-1.165 5.49,-4.024 15.67,-4.024 z m 0,39.396 c -10.18,0 -15.67,-2.859 -15.67,-4.024 v -26.44 c 3.79,1.99 9.87,2.929 15.67,2.929 5.8,0 11.88,-0.939 15.67,-2.929 v 26.44 c 0,1.165 -5.49,4.024 -15.67,4.024 z"
               id="path2999" />
            <path
               d="m 1606.96,768.773 0.3,1.233 c 0.77,-0.191 1.59,-0.36 2.45,-0.508 l -0.22,-1.25 c -0.88,0.15 -1.73,0.326 -2.53,0.525 z"
               id="path3001" />
            <path
               d="m 1611.54,767.953 0.15,1.261 c 0.81,-0.097 1.65,-0.174 2.5,-0.229 l -0.09,-1.271 c -0.87,0.059 -1.73,0.139 -2.56,0.239 z"
               id="path3003" />
            <path
               d="m 1602.52,770.351 0.58,1.131 c 0.73,-0.365 1.48,-0.676 2.26,-0.928 l -0.4,-1.208 c -0.84,0.274 -1.66,0.609 -2.44,1.005 z"
               id="path3005" />
            <path
               d="m 1616.16,767.625 0.03,1.27 c 0.83,-0.02 1.68,-0.021 2.51,0 l 0.03,-1.27 c -0.85,-0.023 -1.72,-0.022 -2.57,0 z"
               id="path3007" />
            <path
               d="m 1629.54,770.521 c 0.78,0.25 1.54,0.555 2.27,0.915 l 0.58,-1.136 c -0.79,-0.388 -1.61,-0.718 -2.45,-0.986 z"
               id="path3009" />
            <path
               d="m 1625.19,769.483 c 0.85,0.142 1.67,0.31 2.44,0.498 l 0.3,-1.235 c -0.8,-0.195 -1.65,-0.369 -2.53,-0.516 z"
               id="path3011" />
            <path
               d="m 1620.71,768.979 c 0.84,0.052 1.69,0.127 2.5,0.223 l 0.15,-1.262 c -0.84,-0.098 -1.7,-0.175 -2.57,-0.23 z"
               id="path3013" />
          </g>
        </g>
      </g>
      <path
         d="M 0,0 278.721,562.759"
         stroke="#000000"
         stroke-width="10.3125"
         stroke-linejoin="round"
         stroke-miterlimit="10"
         fill="none"
         fill-rule="evenodd"
         transform="matrix(-1,0,0,1,1571.72,1213)"
         id="path3021" />
      <path
         d="M 0,0 164.334,118.248"
         stroke="#000000"
         stroke-width="10.3125"
         stroke-linejoin="round"
         stroke-miterlimit="10"
         fill="none"
         fill-rule="evenodd"
         transform="matrix(-1,0,0,1,1569.33,1429)"
         id="path3023" />
      <path
         d="m 1347,1783 c 0,6.08 -23.95,11 -53.5,11 -29.55,0 -53.5,-4.92 -53.5,-11 0,-6.08 23.95,-11 53.5,-11 29.55,0 53.5,4.92 53.5,11 z"
         fill-rule="evenodd"
         id="path3025" />
      <rect
         x="1240"
         y="1771"
         width="107"
         height="14.0001"
         id="rect3027" />
      <g
         id="g3037">
        <g
           id="g3035">
          <g
             id="g3033">
            <path
               d="M 0,0 278.629,562.574"
               stroke="#000000"
               stroke-width="10.3091"
               stroke-linejoin="round"
               stroke-miterlimit="10"
               fill="none"
               fill-rule="evenodd"
               transform="matrix(1.0012,0,0,1,1791.63,1221.28)"
               id="path3029" />
            <path
               d="M 0,0 164.28,118.209"
               stroke="#000000"
               stroke-width="10.3091"
               stroke-linejoin="round"
               stroke-miterlimit="10"
               fill="none"
               fill-rule="evenodd"
               transform="matrix(1.0012,0,0,1,1792.59,1437.77)"
               id="path3031" />
          </g>
        </g>
      </g>
      <path
         d="m 2127,1791 c 0,6.07 -23.95,11 -53.5,11 -29.55,0 -53.5,-4.93 -53.5,-11 0,-6.08 23.95,-11 53.5,-11 29.55,0 53.5,4.92 53.5,11 z"
         fill-rule="evenodd"
         id="path3039" />
      <rect
         x="2020"
         y="1779"
         width="107"
         height="14.0001"
         id="rect3041" />
    </g>
  </g>
</svg>
